<mxfile host="app.diagrams.net" modified="2024-04-09T12:05:07.254Z" agent="Mozilla/5.0 (Windows NT 10.0; Win64; x64) AppleWebKit/537.36 (KHTML, like Gecko) Chrome/122.0.0.0 Safari/537.36" version="24.0.7" etag="APocOCdKv5J7_m_KmNoC" type="github">
  <diagram name="PÃ¡gina-1" id="YuZij9cUBXBXLasxQc-k">
    <mxGraphModel>
      <root>
        <mxCell id="0" />
        <mxCell id="1" parent="0" />
      </root>
    </mxGraphModel>
  </diagram>
</mxfile>
